# 3ds Max Wavefront OBJ Exporter v0.97b - (c)2007 guruware
# File Created: 22.07.2019 18:13:40

#
# object Quest_1
#

v  5.6048 -7.6541 0.3058
v  5.6504 -5.7757 -0.1677
v  -5.9237 -5.4950 -0.1677
v  -5.9693 -7.3734 0.3058
v  5.6959 -3.8973 -0.3058
v  5.9693 7.3734 -0.3058
v  -5.6048 7.6542 -0.3058
v  -5.8782 -3.6165 -0.3058
# 8 vertices

vn 0.0059 0.2443 0.9697
vn 0.0039 0.1594 0.9872
vn 0.0009 0.0367 0.9993
vn 0.0000 0.0000 1.0000
# 4 vertex normals

vt 0.4080 0.6220 0.0000
vt 0.3936 0.6220 0.0000
vt 0.3936 0.5334 0.0000
vt 0.4080 0.5334 0.0000
vt 0.3792 0.6220 0.0000
vt 0.2928 0.6220 0.0000
vt 0.2928 0.5334 0.0000
vt 0.3792 0.5334 0.0000
# 8 texture coords

g Quest_1
s 1
f 1/1/1 2/2/2 3/3/2 4/4/1 
f 5/5/3 6/6/4 7/7/4 8/8/3 
f 2/2/2 5/5/3 8/8/3 3/3/2 
# 3 polygons

