# 3ds Max Wavefront OBJ Exporter v0.97b - (c)2007 guruware
# File Created: 22.07.2019 18:12:37

#
# object Quest_7
#

v  -6.1492 8.2396 -0.3069
v  -6.2728 0.0952 -0.3069
v  6.2728 -0.0952 -0.3069
v  6.3964 8.0492 -0.3069
v  -6.3346 -3.9770 -0.1123
v  6.2110 -4.1674 -0.1123
v  -6.3964 -8.0492 0.3069
v  6.1492 -8.2396 0.3069
# 8 vertices

vn -0.0000 -0.0000 1.0000
vn 0.0004 0.0239 0.9997
vn 0.0011 0.0751 0.9972
vn 0.0016 0.1024 0.9947
# 4 vertex normals

vt 0.1661 0.5406 0.0000
vt 0.2285 0.5406 0.0000
vt 0.2285 0.6367 0.0000
vt 0.1661 0.6367 0.0000
vt 0.2597 0.5406 0.0000
vt 0.2597 0.6367 0.0000
vt 0.2909 0.5406 0.0000
vt 0.2909 0.6367 0.0000
# 8 texture coords

g Quest_7
s 1
f 1/1/1 2/2/2 3/3/2 4/4/1 
f 2/2/2 5/5/3 6/6/3 3/3/2 
f 5/5/3 7/7/4 8/8/4 6/6/3 
# 3 polygons

